<svg width="30" height="30" viewBox="0 0 30 30" fill="none" xmlns="http://www.w3.org/2000/svg">
<path d="M22.48 13.4875V18.4875C22.48 18.8125 22.4675 19.125 22.43 19.425C22.1424 22.8 20.1544 24.475 16.491 24.475H15.9909C15.6783 24.475 15.3782 24.625 15.1907 24.875L13.6903 26.875C13.0276 27.7625 11.9524 27.7625 11.2897 26.875L9.78932 24.875C9.68924 24.7585 9.56692 24.6631 9.42953 24.5944C9.29213 24.5257 9.14241 24.4851 8.98912 24.475H8.489C4.5005 24.475 2.5 23.4875 2.5 18.4875V13.4875C2.5 9.825 4.18792 7.8375 7.55126 7.55C7.85134 7.5125 8.16392 7.5 8.489 7.5H16.491C20.4795 7.5 22.48 9.5 22.48 13.4875Z" stroke="white" stroke-width="1.5" stroke-miterlimit="10" stroke-linecap="round" stroke-linejoin="round"/>
<path opacity="0.4" d="M27.4758 8.4875V13.4875C27.4758 17.1625 25.7883 19.1375 22.4258 19.425C22.4633 19.125 22.4758 18.8125 22.4758 18.4875V13.4875C22.4758 9.5 20.4758 7.5 16.4883 7.5H8.48828C8.16328 7.5 7.85078 7.5125 7.55078 7.55C7.83828 4.1875 9.82578 2.5 13.4883 2.5H21.4883C25.4758 2.5 27.4758 4.5 27.4758 8.4875Z" stroke="white" stroke-width="1.5" stroke-miterlimit="10" stroke-linecap="round" stroke-linejoin="round"/>
<path opacity="0.4" d="M16.8691 16.5625H16.8816M12.4941 16.5625H12.5066M8.11914 16.5625H8.13164" stroke="white" stroke-width="2" stroke-linecap="round" stroke-linejoin="round"/>
</svg>
