<svg width="30" height="30" viewBox="0 0 30 30" fill="none" xmlns="http://www.w3.org/2000/svg">
<path opacity="0.4" d="M26.7121 14.2375V21.725C26.7121 25.175 23.9121 27.9749 20.4621 27.9749H9.53711C6.08711 27.9749 3.28711 25.175 3.28711 21.725V14.325C4.23711 15.35 5.58711 15.9375 7.04961 15.9375C8.62461 15.9375 10.1371 15.15 11.0871 13.8875C11.5209 14.524 12.1047 15.0441 12.7871 15.4016C13.4694 15.7591 14.2293 15.9431 14.9996 15.9375C16.5996 15.9375 18.0246 15.1875 18.8871 13.9375C19.8496 15.175 21.3371 15.9375 22.8871 15.9375C24.3996 15.9375 25.7746 15.325 26.7121 14.2375Z" fill="white"/>
<path d="M18.7372 1.5625H11.2372L10.3122 10.7625C10.2372 11.6125 10.3622 12.4125 10.6747 13.1375C11.3997 14.8375 13.0997 15.9375 14.9997 15.9375C16.9247 15.9375 18.5872 14.8625 19.3372 13.15C19.5622 12.6125 19.6997 11.9875 19.7122 11.35V11.1125L18.7372 1.5625Z" fill="white"/>
<path opacity="0.6" d="M27.9496 10.3375L27.5871 6.875C27.0621 3.1 25.3496 1.5625 21.6871 1.5625H16.8871L17.8121 10.9375C17.8246 11.0625 17.8371 11.2 17.8371 11.4375C17.9121 12.0875 18.1121 12.6875 18.4121 13.225C19.3121 14.875 21.0621 15.9375 22.8871 15.9375C24.5496 15.9375 26.0496 15.2 26.9871 13.9C27.7371 12.9 28.0746 11.6375 27.9496 10.3375ZM8.23706 1.5625C4.56206 1.5625 2.86206 3.1 2.32456 6.9125L1.98706 10.35C1.86206 11.6875 2.22456 12.9875 3.01206 14C3.96206 15.2375 5.42456 15.9375 7.04956 15.9375C8.87456 15.9375 10.6246 14.875 11.5121 13.25C11.8371 12.6875 12.0496 12.0375 12.1121 11.3625L13.0871 1.575H8.23706V1.5625Z" fill="white"/>
<path d="M14.1879 20.8251C13.4205 20.907 12.7108 21.2706 12.1959 21.8455C11.681 22.4204 11.3976 23.1658 11.4004 23.9376V27.9751H18.5879V24.3751C18.6004 21.7626 17.0629 20.5251 14.1879 20.8251Z" fill="white"/>
</svg>
