<svg width="30" height="30" viewBox="0 0 30 30" fill="none" xmlns="http://www.w3.org/2000/svg">
<path d="M13.0376 22.0238C13.0376 23.3988 12.5126 24.7113 11.5251 25.7113C10.7626 26.4738 9.7251 26.9988 8.4876 27.1613L5.4126 27.4988C3.7376 27.6863 2.3001 26.2613 2.5001 24.5613L2.8376 21.4862C3.1376 18.7487 5.4251 16.9988 7.8501 16.9488C8.1001 16.9363 8.3626 16.9488 8.6001 16.9613C9.6626 17.0988 10.7001 17.5863 11.5501 18.4488C12.3876 19.2863 12.8626 20.2613 13.0001 21.3113C13.0126 21.5488 13.0376 21.7863 13.0376 22.0238Z" stroke="white" stroke-width="1.5" stroke-linecap="round" stroke-linejoin="round"/>
<g opacity="0.4">
<path d="M27.2629 4.9225C25.3379 9.7225 20.5129 16.2475 16.4754 19.485L14.0129 21.46C13.7004 21.685 13.3879 21.885 13.0379 22.0225C13.0379 21.7975 13.0254 21.5475 12.9879 21.31C12.8504 20.26 12.3754 19.285 11.5379 18.4475C10.6879 17.5975 9.65039 17.0975 8.58789 16.96C8.33789 16.9475 8.08789 16.9225 7.83789 16.9475C7.97539 16.56 8.18789 16.1975 8.45039 15.8975L10.4004 13.435C13.6254 9.3975 20.1754 4.5475 24.9629 2.635C25.7004 2.36 26.4129 2.56 26.8629 3.0225C27.3379 3.485 27.5629 4.1975 27.2629 4.9225Z" stroke="white" stroke-width="1.5" stroke-linecap="round" stroke-linejoin="round"/>
<path d="M17.8002 18.085C17.8002 14.8225 15.1502 12.1725 11.8877 12.1725" stroke="white" stroke-width="1.5" stroke-linecap="round" stroke-linejoin="round"/>
</g>
<path d="M25.1504 15.9125L26.0754 16.825C27.9379 18.6875 27.9379 20.525 26.0754 22.3875L22.3754 26.0875C20.5379 27.925 18.6754 27.925 16.8379 26.0875M3.88789 13.1363C2.05039 11.2738 2.05039 9.43626 3.88789 7.57376L7.58789 3.87376C9.42539 2.03626 11.2879 2.03626 13.1254 3.87376L14.0504 4.79876" stroke="white" stroke-width="1.5" stroke-linecap="round"/>
<path opacity="0.4" d="M14.0625 4.815L9.4375 9.44M25.15 15.9125L21.45 19.6" stroke="white" stroke-width="1.5" stroke-linecap="round"/>
</svg>
