<svg width="30" height="30" viewBox="0 0 30 30" fill="none" xmlns="http://www.w3.org/2000/svg">
<path d="M26.2992 16.5988L25.1492 15.4738L15.4617 25.1488L16.6242 26.3113C17.5992 27.2863 18.6117 27.7738 19.6117 27.7738C20.6117 27.7738 21.6242 27.2863 22.5992 26.3113L26.2992 22.6113C28.2867 20.6113 28.2867 18.5988 26.2992 16.5988ZM13.3617 3.66377C11.3992 1.70127 9.33672 1.70127 7.37422 3.66377L3.66172 7.36377C1.71172 9.32627 1.71172 11.3888 3.66172 13.3513L4.81172 14.5013L14.4992 4.81377L13.3617 3.66377Z" fill="white"/>
<path d="M27.2633 4.92255C25.6258 9.01005 21.8883 14.3475 18.3258 17.835C18.0726 16.2592 17.3202 14.8063 16.1793 13.6901C15.0384 12.574 13.5693 11.8536 11.9883 11.635C15.4883 8.06005 20.8633 4.27255 24.9633 2.62255C25.6883 2.34755 26.4133 2.56005 26.8633 3.01005C27.3383 3.48505 27.5633 4.19755 27.2633 4.92255Z" fill="url(#paint0_linear_749_77)"/>
<path d="M18.3254 17.8362C17.7004 18.4487 17.0754 19.0112 16.4754 19.4862L14.0129 21.4612C13.7004 21.6862 13.3879 21.8737 13.0379 22.0237C13.0379 21.7862 13.0129 21.5487 12.9879 21.2987C12.8504 20.2612 12.3754 19.2737 11.5379 18.4362C10.6754 17.5862 9.65039 17.0987 8.58789 16.9612C8.33789 16.9362 8.07539 16.9237 7.83789 16.9362C7.97539 16.5487 8.18789 16.1862 8.45039 15.8862L10.4004 13.4237C10.8629 12.8362 11.4004 12.2362 11.9879 11.6362C15.2379 12.0862 17.8129 14.6112 18.3254 17.8362Z" fill="white"/>
<path d="M13.0372 22.025C13.0372 23.4 12.5122 24.7125 11.5122 25.7C10.7497 26.475 9.72471 27 8.47471 27.15L5.41221 27.4875C3.73721 27.675 2.29971 26.2375 2.48721 24.55L2.82471 21.475C3.12471 18.7375 5.41221 16.9875 7.83721 16.9375C8.07471 16.925 8.33721 16.9375 8.58721 16.9625C9.64971 17.1 10.6747 17.5875 11.5372 18.4375C12.3747 19.275 12.8497 20.2625 12.9872 21.3C13.0122 21.55 13.0372 21.7875 13.0372 22.025Z" fill="url(#paint1_linear_749_77)"/>
<defs>
<linearGradient id="paint0_linear_749_77" x1="19.6937" y1="2.49988" x2="19.6937" y2="17.835" gradientUnits="userSpaceOnUse">
<stop stop-color="#14D3DB"/>
<stop offset="1" stop-color="#0057FF"/>
</linearGradient>
<linearGradient id="paint1_linear_749_77" x1="7.75395" y1="16.9326" x2="7.75395" y2="27.504" gradientUnits="userSpaceOnUse">
<stop stop-color="#14D3DB"/>
<stop offset="1" stop-color="#0057FF"/>
</linearGradient>
</defs>
</svg>
