<svg width="41" height="41" viewBox="0 0 41 41" fill="none" xmlns="http://www.w3.org/2000/svg">
<circle cx="20.25" cy="20.25" r="20.25" fill="#323232"/>
<path d="M18.0366 27.0238C18.0366 28.3988 17.5116 29.7113 16.5241 30.7113C15.7616 31.4738 14.7241 31.9988 13.4866 32.1613L10.4116 32.4988C8.73662 32.6863 7.29912 31.2613 7.49912 29.5613L7.83662 26.4862C8.13662 23.7487 10.4241 21.9988 12.8491 21.9488C13.0991 21.9363 13.3616 21.9488 13.5991 21.9613C14.6616 22.0988 15.6991 22.5863 16.5491 23.4488C17.3866 24.2863 17.8616 25.2613 17.9991 26.3113C18.0116 26.5488 18.0366 26.7863 18.0366 27.0238Z" stroke="#14D3DB" stroke-width="1.5" stroke-linecap="round" stroke-linejoin="round"/>
<g opacity="0.4">
<path d="M32.2629 9.9225C30.3379 14.7225 25.5129 21.2475 21.4754 24.485L19.0129 26.46C18.7004 26.685 18.3879 26.885 18.0379 27.0225C18.0379 26.7975 18.0254 26.5475 17.9879 26.31C17.8504 25.26 17.3754 24.285 16.5379 23.4475C15.6879 22.5975 14.6504 22.0975 13.5879 21.96C13.3379 21.9475 13.0879 21.9225 12.8379 21.9475C12.9754 21.56 13.1879 21.1975 13.4504 20.8975L15.4004 18.435C18.6254 14.3975 25.1754 9.5475 29.9629 7.635C30.7004 7.36 31.4129 7.56 31.8629 8.0225C32.3379 8.485 32.5629 9.1975 32.2629 9.9225Z" stroke="#14D3DB" stroke-width="1.5" stroke-linecap="round" stroke-linejoin="round"/>
<path d="M22.8012 23.085C22.8012 19.8225 20.1512 17.1725 16.8887 17.1725" stroke="#14D3DB" stroke-width="1.5" stroke-linecap="round" stroke-linejoin="round"/>
</g>
<path d="M30.1504 20.9125L31.0754 21.825C32.9379 23.6875 32.9379 25.525 31.0754 27.3875L27.3754 31.0875C25.5379 32.925 23.6754 32.925 21.8379 31.0875M8.88789 18.1363C7.05039 16.2738 7.05039 14.4363 8.88789 12.5738L12.5879 8.87376C14.4254 7.03626 16.2879 7.03626 18.1254 8.87376L19.0504 9.79876" stroke="#14D3DB" stroke-width="1.5" stroke-linecap="round"/>
<path opacity="0.4" d="M19.0625 9.815L14.4375 14.44M30.15 20.9125L26.45 24.6" stroke="#14D3DB" stroke-width="1.5" stroke-linecap="round"/>
</svg>
