<svg width="160" height="199" viewBox="0 0 160 199" fill="none" xmlns="http://www.w3.org/2000/svg">
<path d="M153.6 0C130.6 0 111.9 18.7 111.9 41.7V122.4C111.9 139.9 97.7 154.2 80.1 154.3H79C62.1 154.3 48.3 140.5 48.3 123.6V122.5C48.3 105 62.6 90 80.1 89.9C82.5 89.9 84.6 89.4 85.3 87.1C86.5 83.3 83.7 79.8 80.1 79.8C67.5 79.8 56.2 85.3 48.3 93.9V42.5C48.3 19.1 29.3 0.0999908 5.79999 0.0999908H0V120.9C0 162.5 34 198 75.6 198.6C122 199.3 160 161.7 160 115.4V0H153.6ZM122.9 41.7C122.9 26.3 134.3 13.5 149.1 11.3V62.1C138.8 63.2 129.5 68.1 122.9 75.4V41.7ZM11.2 11.5C26.1 14 37.4 26.9 37.4 42.5V75.9C30.7 68.5 21.5 63.5 11.2 62.3V11.5ZM11.2 121.7V73.4C26.1 75.9 37.4 88.8 37.4 104.4V174.3C21.5 162.3 11.2 143.2 11.2 121.7ZM49.4 181.4V151.5C56.2 159.7 67.5 165.2 80 165.3H80.2C92.8 165.2 104.1 159.7 111.9 151V178.5C101.5 184.3 89.6 187.5 77 187.5C66.8 187.5 57.1 185.2 49.4 181.4ZM149.2 115.4C149.2 137.8 139 157.8 123 171V103.6C123 88.2 134.4 75.4 149.2 73.2V115.4Z" fill="white"/>
</svg>
