<svg width="25" height="24" viewBox="0 0 25 24" fill="none" xmlns="http://www.w3.org/2000/svg">
<path d="M2.68685 18.903L2.66602 18.9229C2.38477 18.3363 2.20768 17.6701 2.13477 16.9343C2.20768 17.6601 2.4056 18.3164 2.68685 18.903ZM9.37539 10.3221C10.0329 10.3221 10.6635 10.0727 11.1284 9.62894C11.5934 9.18514 11.8546 8.58322 11.8546 7.95559C11.8546 7.32796 11.5934 6.72604 11.1284 6.28224C10.6635 5.83844 10.0329 5.58911 9.37539 5.58911C8.71788 5.58911 8.08729 5.83844 7.62235 6.28224C7.15742 6.72604 6.89622 7.32796 6.89622 7.95559C6.89622 8.58322 7.15742 9.18514 7.62235 9.62894C8.08729 10.0727 8.71788 10.3221 9.37539 10.3221Z" fill="#34CA00"/>
<path d="M16.8652 1.98865H8.13607C4.3444 1.98865 2.08398 4.14632 2.08398 7.76564V16.098C2.08398 17.1818 2.2819 18.1264 2.66732 18.9219C3.56315 20.8111 5.47982 21.875 8.13607 21.875H16.8652C20.6569 21.875 22.9173 19.7173 22.9173 16.098V7.76564C22.9173 4.14632 20.6569 1.98865 16.8652 1.98865ZM21.2194 12.429C20.4069 11.7628 19.0944 11.7628 18.2819 12.429L13.9486 15.9787C13.1361 16.6449 11.8236 16.6449 11.0111 15.9787L10.6569 15.7003C9.91732 15.0838 8.74023 15.0242 7.9069 15.5611L4.01107 18.0568C3.7819 17.5 3.64648 16.8537 3.64648 16.098V7.76564C3.64648 4.96166 5.19857 3.48012 8.13607 3.48012H16.8652C19.8027 3.48012 21.3548 4.96166 21.3548 7.76564V12.5384L21.2194 12.429Z" fill="#34CA00"/>
</svg>
