<svg width="24" height="25" viewBox="0 0 24 25" fill="none" xmlns="http://www.w3.org/2000/svg">
<path d="M20.9701 1.5H18.0301C17.1601 1.5 16.5201 1.86 16.2301 2.5C16.0701 2.79 16.0001 3.13 16.0001 3.53V6.47C16.0001 7.74 16.7601 8.5 18.0301 8.5H20.9701C21.3701 8.5 21.7101 8.43 22.0001 8.27C22.6401 7.98 23.0001 7.34 23.0001 6.47V3.53C23.0001 2.26 22.2401 1.5 20.9701 1.5ZM21.9101 5.43C21.8101 5.53 21.6601 5.6 21.5001 5.61H20.0901V6.12L20.1001 7C20.0901 7.17 20.0301 7.31 19.9101 7.43C19.8101 7.53 19.6601 7.6 19.5001 7.6C19.1701 7.6 18.9001 7.33 18.9001 7V5.6L17.5001 5.61C17.3401 5.60738 17.1875 5.54195 17.0752 5.42784C16.963 5.31372 16.9001 5.16006 16.9001 5C16.9001 4.67 17.1701 4.4 17.5001 4.4L18.3801 4.41H18.9001V3.01C18.9001 2.68 19.1701 2.4 19.5001 2.4C19.8301 2.4 20.1001 2.68 20.1001 3.01L20.0901 3.72V4.4H21.5001C21.8301 4.4 22.1001 4.67 22.1001 5C22.0899 5.16136 22.0225 5.31381 21.9101 5.43ZM9.00109 10.881C9.63231 10.881 10.2377 10.6303 10.684 10.1839C11.1303 9.73758 11.3811 9.13222 11.3811 8.501C11.3811 7.86979 11.1303 7.26442 10.684 6.81809C10.2377 6.37175 9.63231 6.121 9.00109 6.121C8.36988 6.121 7.76452 6.37175 7.31818 6.81809C6.87184 7.26442 6.62109 7.86979 6.62109 8.501C6.62109 9.13222 6.87184 9.73758 7.31818 10.1839C7.76452 10.6303 8.36988 10.881 9.00109 10.881Z" fill="white"/>
<path d="M20.97 8.5H20.5V13.11L20.37 13C19.59 12.33 18.33 12.33 17.55 13L13.39 16.57C12.61 17.24 11.35 17.24 10.57 16.57L10.23 16.29C9.52 15.67 8.39 15.61 7.59 16.15L3.85 18.66C3.63 18.1 3.5 17.45 3.5 16.69V8.31C3.5 5.49 4.99 4 7.81 4H16V3.53C16 3.13 16.07 2.79 16.23 2.5H7.81C4.17 2.5 2 4.67 2 8.31V16.69C2 17.78 2.19 18.73 2.56 19.53C3.42 21.43 5.26 22.5 7.81 22.5H16.19C19.83 22.5 22 20.33 22 16.69V8.27C21.71 8.43 21.37 8.5 20.97 8.5Z" fill="white"/>
</svg>
