<svg width="30" height="30" viewBox="0 0 30 30" fill="none" xmlns="http://www.w3.org/2000/svg">
<path d="M15 27.5C21.9037 27.5 27.5 21.9037 27.5 15C27.5 8.09625 21.9037 2.5 15 2.5C8.09625 2.5 2.5 8.09625 2.5 15C2.5 21.9037 8.09625 27.5 15 27.5Z" stroke="white" stroke-width="1.5" stroke-linecap="round" stroke-linejoin="round"/>
<g opacity="0.4">
<path d="M9.99997 3.75H11.25C8.81251 11.052 8.81251 18.948 11.25 26.25H9.99997M18.75 3.75C21.1874 11.052 21.1874 18.948 18.75 26.25" stroke="white" stroke-width="1.5" stroke-linecap="round" stroke-linejoin="round"/>
<path d="M3.75 20V18.75C11.052 21.1875 18.948 21.1875 26.25 18.75V20M3.75 11.25C11.052 8.81254 18.948 8.81254 26.25 11.25" stroke="white" stroke-width="1.5" stroke-linecap="round" stroke-linejoin="round"/>
</g>
</svg>
