<svg width="30" height="30" viewBox="0 0 30 30" fill="none" xmlns="http://www.w3.org/2000/svg">
<path d="M13.0366 22.0238C13.0366 23.3988 12.5116 24.7113 11.5241 25.7113C10.7616 26.4738 9.72412 26.9988 8.48662 27.1613L5.41162 27.4988C3.73662 27.6863 2.29912 26.2613 2.49912 24.5613L2.83662 21.4863C3.13662 18.7488 5.42412 16.9988 7.84912 16.9488C8.09912 16.9363 8.36162 16.9488 8.59912 16.9613C9.66162 17.0988 10.6991 17.5863 11.5491 18.4488C12.3866 19.2863 12.8616 20.2613 12.9991 21.3113C13.0116 21.5488 13.0366 21.7863 13.0366 22.0238Z" stroke="white" stroke-width="1.5" stroke-linecap="round" stroke-linejoin="round"/>
<g opacity="0.4">
<path d="M27.2629 4.92253C25.3379 9.72253 20.5129 16.2475 16.4754 19.485L14.0129 21.46C13.7004 21.685 13.3879 21.885 13.0379 22.0225C13.0379 21.7975 13.0254 21.5475 12.9879 21.31C12.8504 20.26 12.3754 19.285 11.5379 18.4475C10.6879 17.5975 9.65039 17.0975 8.58789 16.96C8.33789 16.9475 8.08789 16.9225 7.83789 16.9475C7.97539 16.56 8.18789 16.1975 8.45039 15.8975L10.4004 13.435C13.6254 9.39753 20.1754 4.54753 24.9629 2.63503C25.7004 2.36003 26.4129 2.56003 26.8629 3.02253C27.3379 3.48503 27.5629 4.19753 27.2629 4.92253Z" stroke="white" stroke-width="1.5" stroke-linecap="round" stroke-linejoin="round"/>
<path d="M17.8012 18.085C17.8012 14.8225 15.1512 12.1725 11.8887 12.1725" stroke="white" stroke-width="1.5" stroke-linecap="round" stroke-linejoin="round"/>
</g>
<path d="M25.1504 15.9125L26.0754 16.825C27.9379 18.6875 27.9379 20.525 26.0754 22.3875L22.3754 26.0875C20.5379 27.925 18.6754 27.925 16.8379 26.0875M3.88789 13.1362C2.05039 11.2737 2.05039 9.43623 3.88789 7.57373L7.58789 3.87373C9.42539 2.03623 11.2879 2.03623 13.1254 3.87373L14.0504 4.79873" stroke="white" stroke-width="1.5" stroke-linecap="round"/>
<path opacity="0.4" d="M14.0625 4.81494L9.4375 9.43994M25.15 15.9124L21.45 19.5999" stroke="white" stroke-width="1.5" stroke-linecap="round"/>
</svg>
