<svg width="30" height="30" viewBox="0 0 30 30" fill="none" xmlns="http://www.w3.org/2000/svg">
<path opacity="0.34" d="M15 18.75C15.9946 18.75 16.9484 18.3549 17.6517 17.6517C18.3549 16.9484 18.75 15.9946 18.75 15C18.75 14.0054 18.3549 13.0516 17.6517 12.3483C16.9484 11.6451 15.9946 11.25 15 11.25C14.0054 11.25 13.0516 11.6451 12.3483 12.3483C11.6451 13.0516 11.25 14.0054 11.25 15C11.25 15.9946 11.6451 16.9484 12.3483 17.6517C13.0516 18.3549 14.0054 18.75 15 18.75Z" stroke="white" stroke-width="1.5" stroke-miterlimit="10" stroke-linecap="round" stroke-linejoin="round"/>
<path d="M2.5 16.1013V13.9013C2.5 12.6013 3.5625 11.5263 4.875 11.5263C7.1375 11.5263 8.0625 9.92626 6.925 7.96376C6.275 6.83876 6.6625 5.37626 7.8 4.72626L9.9625 3.48876C10.95 2.90126 12.225 3.25126 12.8125 4.23876L12.95 4.47626C14.075 6.43876 15.925 6.43876 17.0625 4.47626L17.2 4.23876C17.7875 3.25126 19.0625 2.90126 20.05 3.48876L22.2125 4.72626C23.35 5.37626 23.7375 6.83876 23.0875 7.96376C21.95 9.92626 22.875 11.5263 25.1375 11.5263C26.4375 11.5263 27.5125 12.5888 27.5125 13.9013V16.1013C27.5125 17.4013 26.45 18.4763 25.1375 18.4763C22.875 18.4763 21.95 20.0763 23.0875 22.0388C23.7375 23.1763 23.35 24.6263 22.2125 25.2763L20.05 26.5138C19.0625 27.1013 17.7875 26.7513 17.2 25.7638L17.0625 25.5263C15.9375 23.5638 14.0875 23.5638 12.95 25.5263L12.8125 25.7638C12.225 26.7513 10.95 27.1013 9.9625 26.5138L7.8 25.2763C7.25512 24.9625 6.85698 24.4454 6.69293 23.8385C6.52889 23.2315 6.61235 22.5843 6.925 22.0388C8.0625 20.0763 7.1375 18.4763 4.875 18.4763C3.5625 18.4763 2.5 17.4013 2.5 16.1013Z" stroke="white" stroke-width="1.5" stroke-miterlimit="10" stroke-linecap="round" stroke-linejoin="round"/>
</svg>
