<svg width="30" height="30" viewBox="0 0 30 30" fill="none" xmlns="http://www.w3.org/2000/svg">
<path opacity="0.4" d="M21.2106 18.05C22.9231 18.3375 24.8106 18.0375 26.1356 17.15C27.8981 15.975 27.8981 14.05 26.1356 12.875C24.7981 11.9875 22.8856 11.6875 21.1731 11.9875M8.74688 18.05C7.03438 18.3375 5.14687 18.0375 3.82188 17.15C2.05938 15.975 2.05938 14.05 3.82188 12.875C5.15938 11.9875 7.07188 11.6875 8.78438 11.9875M22.4981 8.95C22.4195 8.93749 22.3393 8.93749 22.2606 8.95C21.4264 8.91983 20.6366 8.56651 20.0581 7.9647C19.4796 7.36289 19.1578 6.55975 19.1606 5.725C19.1606 3.9375 20.5981 2.5 22.3856 2.5C23.2409 2.5 24.0612 2.83978 24.666 3.44458C25.2708 4.04939 25.6106 4.86968 25.6106 5.725C25.6083 6.56034 25.2831 7.36244 24.703 7.96351C24.1229 8.56459 23.3329 8.91806 22.4981 8.95ZM7.45937 8.95C7.53437 8.9375 7.62188 8.9375 7.69688 8.95C8.53108 8.91983 9.32089 8.56651 9.89937 7.9647C10.4779 7.36289 10.7997 6.55975 10.7969 5.725C10.7969 3.9375 9.35938 2.5 7.57188 2.5C6.71655 2.5 5.89626 2.83978 5.29146 3.44458C4.68665 4.04939 4.34688 4.86968 4.34688 5.725C4.35938 7.475 5.73437 8.8875 7.45937 8.95Z" stroke="white" stroke-width="1.5" stroke-linecap="round" stroke-linejoin="round"/>
<path d="M14.9972 18.2863C14.9185 18.2738 14.8384 18.2738 14.7597 18.2863C13.9255 18.2561 13.1357 17.9028 12.5572 17.301C11.9787 16.6992 11.6569 15.8961 11.6597 15.0613C11.6597 13.2738 13.0972 11.8363 14.8847 11.8363C15.74 11.8363 16.5603 12.1761 17.1651 12.7809C17.7699 13.3857 18.1097 14.206 18.1097 15.0613C18.0972 16.8113 16.7222 18.2363 14.9972 18.2863ZM11.3609 22.2251C9.59844 23.4001 9.59844 25.3251 11.3609 26.5001C13.3609 27.8376 16.6359 27.8376 18.6359 26.5001C20.3984 25.3251 20.3984 23.4001 18.6359 22.2251C16.6484 20.9001 13.3609 20.9001 11.3609 22.2251Z" stroke="white" stroke-width="1.5" stroke-linecap="round" stroke-linejoin="round"/>
</svg>
