<svg width="30" height="30" viewBox="0 0 30 30" fill="none" xmlns="http://www.w3.org/2000/svg">
<path d="M11.275 3.54749L4.5375 8.79749C3.4125 9.67249 2.5 11.535 2.5 12.9475V22.21C2.5 25.11 4.8625 27.485 7.7625 27.485H22.2375C25.1375 27.485 27.5 25.11 27.5 22.2225V13.1225C27.5 11.61 26.4875 9.67249 25.25 8.80999L17.525 3.39749C15.775 2.17249 12.9625 2.23499 11.275 3.54749Z" stroke="white" stroke-width="1.5" stroke-linecap="round" stroke-linejoin="round"/>
<g opacity="0.4">
<path d="M15 11.25V22.5M9.375 16.875H20.625M13.125 22.5H16.875C18.9375 22.5 20.625 20.8125 20.625 18.75V15C20.625 12.9375 18.9375 11.25 16.875 11.25H13.125C11.0625 11.25 9.375 12.9375 9.375 15V18.75C9.375 20.8125 11.0625 22.5 13.125 22.5Z" stroke="white" stroke-width="1.5" stroke-linecap="round" stroke-linejoin="round"/>
</g>
</svg>
