<svg width="41" height="42" viewBox="0 0 41 42" fill="none" xmlns="http://www.w3.org/2000/svg">
<circle cx="20.293" cy="20.9807" r="20.25" fill="#323232"/>
<path d="M17.275 8.54749L10.5375 13.7975C9.4125 14.6725 8.5 16.535 8.5 17.9475V27.21C8.5 30.11 10.8625 32.485 13.7625 32.485H28.2375C31.1375 32.485 33.5 30.11 33.5 27.2225V18.1225C33.5 16.61 32.4875 14.6725 31.25 13.81L23.525 8.39749C21.775 7.17249 18.9625 7.23499 17.275 8.54749Z" stroke="#14D3DB" stroke-width="1.5" stroke-linecap="round" stroke-linejoin="round"/>
<g opacity="0.4">
<path d="M21 16.25V27.5M15.375 21.875H26.625M19.125 27.5H22.875C24.9375 27.5 26.625 25.8125 26.625 23.75V20C26.625 17.9375 24.9375 16.25 22.875 16.25H19.125C17.0625 16.25 15.375 17.9375 15.375 20V23.75C15.375 25.8125 17.0625 27.5 19.125 27.5Z" stroke="#14D3DB" stroke-width="1.5" stroke-linecap="round" stroke-linejoin="round"/>
</g>
</svg>
