<svg width="22" height="19" viewBox="0 0 22 19" fill="none" xmlns="http://www.w3.org/2000/svg">
<path d="M19.5686 1.99592C19.0579 1.48492 18.4514 1.07957 17.784 0.803004C17.1165 0.526441 16.4011 0.384094 15.6786 0.384094C14.9561 0.384094 14.2407 0.526441 13.5733 0.803004C12.9058 1.07957 12.2994 1.48492 11.7886 1.99592L10.7286 3.05592L9.66863 1.99592C8.63694 0.964228 7.23767 0.384629 5.77863 0.384629C4.3196 0.384629 2.92033 0.964228 1.88863 1.99592C0.856942 3.02761 0.277344 4.42689 0.277344 5.88592C0.277344 7.34495 0.856942 8.74423 1.88863 9.77592L2.94863 10.8359L10.7286 18.6159L18.5086 10.8359L19.5686 9.77592C20.0796 9.26516 20.485 8.65873 20.7615 7.99127C21.0381 7.32382 21.1805 6.60841 21.1805 5.88592C21.1805 5.16343 21.0381 4.44802 20.7615 3.78056C20.485 3.11311 20.0796 2.50668 19.5686 1.99592Z" fill="white"/>
</svg>
