<svg width="30" height="30" viewBox="0 0 30 30" fill="none" xmlns="http://www.w3.org/2000/svg">
<path d="M22.475 13.4875V18.4875C22.475 18.8125 22.4625 19.125 22.425 19.425C22.1375 22.8 20.15 24.475 16.4875 24.475H15.9875C15.675 24.475 15.375 24.625 15.1875 24.875L13.6875 26.875C13.025 27.7625 11.95 27.7625 11.2875 26.875L9.7875 24.875C9.68744 24.7585 9.56516 24.6631 9.42779 24.5944C9.29043 24.5257 9.14074 24.4851 8.9875 24.475H8.4875C4.5 24.475 2.5 23.4875 2.5 18.4875V13.4875C2.5 9.825 4.1875 7.8375 7.55 7.55C7.85 7.5125 8.1625 7.5 8.4875 7.5H16.4875C20.475 7.5 22.475 9.5 22.475 13.4875Z" stroke="white" stroke-width="1.5" stroke-miterlimit="10" stroke-linecap="round" stroke-linejoin="round"/>
<path opacity="0.4" d="M27.4748 8.4875V13.4875C27.4748 17.1625 25.7873 19.1375 22.4248 19.425C22.4623 19.125 22.4748 18.8125 22.4748 18.4875V13.4875C22.4748 9.5 20.4748 7.5 16.4873 7.5H8.4873C8.1623 7.5 7.8498 7.5125 7.5498 7.55C7.8373 4.1875 9.8248 2.5 13.4873 2.5H21.4873C25.4748 2.5 27.4748 4.5 27.4748 8.4875Z" stroke="white" stroke-width="1.5" stroke-miterlimit="10" stroke-linecap="round" stroke-linejoin="round"/>
<path opacity="0.4" d="M16.8691 16.5625H16.8816M12.4941 16.5625H12.5066M8.11914 16.5625H8.13164" stroke="white" stroke-width="2" stroke-linecap="round" stroke-linejoin="round"/>
</svg>
