<svg width="41" height="41" viewBox="0 0 41 41" fill="none" xmlns="http://www.w3.org/2000/svg">
<circle cx="20.25" cy="20.25" r="20.25" fill="#323232"/>
<path d="M27.475 20.4875V25.4875C27.475 25.8125 27.4625 26.125 27.425 26.425C27.1375 29.8 25.15 31.475 21.4875 31.475H20.9875C20.675 31.475 20.375 31.625 20.1875 31.875L18.6875 33.875C18.025 34.7625 16.95 34.7625 16.2875 33.875L14.7875 31.875C14.6874 31.7585 14.5652 31.6631 14.4278 31.5944C14.2904 31.5257 14.1407 31.4851 13.9875 31.475H13.4875C9.5 31.475 7.5 30.4875 7.5 25.4875V20.4875C7.5 16.825 9.1875 14.8375 12.55 14.55C12.85 14.5125 13.1625 14.5 13.4875 14.5H21.4875C25.475 14.5 27.475 16.5 27.475 20.4875Z" stroke="#14D3DB" stroke-width="1.5" stroke-miterlimit="10" stroke-linecap="round" stroke-linejoin="round"/>
<path opacity="0.4" d="M32.4758 15.4875V20.4875C32.4758 24.1625 30.7883 26.1375 27.4258 26.425C27.4633 26.125 27.4758 25.8125 27.4758 25.4875V20.4875C27.4758 16.5 25.4758 14.5 21.4883 14.5H13.4883C13.1633 14.5 12.8508 14.5125 12.5508 14.55C12.8383 11.1875 14.8258 9.5 18.4883 9.5H26.4883C30.4758 9.5 32.4758 11.5 32.4758 15.4875Z" stroke="#14D3DB" stroke-width="1.5" stroke-miterlimit="10" stroke-linecap="round" stroke-linejoin="round"/>
<path opacity="0.4" d="M21.8691 23.5625H21.8816M17.4941 23.5625H17.5066M13.1191 23.5625H13.1316" stroke="#14D3DB" stroke-width="2" stroke-linecap="round" stroke-linejoin="round"/>
</svg>
