<svg width="25" height="25" viewBox="0 0 25 25" fill="none" xmlns="http://www.w3.org/2000/svg">
<path d="M18.9605 11.29V15.29C18.9605 15.55 18.9505 15.8 18.9205 16.04C18.6905 18.74 17.1005 20.08 14.1705 20.08H13.7705C13.5205 20.08 13.2805 20.2 13.1305 20.4L11.9305 22C11.4005 22.71 10.5405 22.71 10.0105 22L8.81047 20.4C8.73042 20.3068 8.63259 20.2305 8.5227 20.1755C8.41281 20.1206 8.29306 20.0881 8.17047 20.08H7.77047C4.58047 20.08 2.98047 19.29 2.98047 15.29V11.29C2.98047 8.36 4.33047 6.77 7.02047 6.54C7.26047 6.51 7.51047 6.5 7.77047 6.5H14.1705C17.3605 6.5 18.9605 8.1 18.9605 11.29Z" stroke="white" stroke-width="1.5" stroke-miterlimit="10" stroke-linecap="round" stroke-linejoin="round"/>
<path d="M22.9595 7.29V11.29C22.9595 14.23 21.6095 15.81 18.9195 16.04C18.9495 15.8 18.9595 15.55 18.9595 15.29V11.29C18.9595 8.1 17.3595 6.5 14.1695 6.5H7.76953C7.50953 6.5 7.25953 6.51 7.01953 6.54C7.24953 3.85 8.83953 2.5 11.7695 2.5H18.1695C21.3595 2.5 22.9595 4.1 22.9595 7.29Z" stroke="white" stroke-width="1.5" stroke-miterlimit="10" stroke-linecap="round" stroke-linejoin="round"/>
<path d="M14.4746 13.75H14.4846M10.9746 13.75H10.9846M7.47461 13.75H7.48461" stroke="white" stroke-width="2" stroke-linecap="round" stroke-linejoin="round"/>
</svg>
