<svg width="30" height="30" viewBox="0 0 30 30" fill="none" xmlns="http://www.w3.org/2000/svg">
<path d="M21.9116 9.7125C21.8246 9.7 21.7362 9.7 21.6491 9.7125C20.7156 9.68195 19.8306 9.28899 19.1819 8.61693C18.5331 7.94488 18.1717 7.04657 18.1741 6.1125C18.1741 4.125 19.7866 2.5 21.7866 2.5C23.7741 2.5 25.3991 4.1125 25.3991 6.1125C25.3965 7.04716 25.0316 7.94441 24.3813 8.61572C23.731 9.28704 22.8457 9.68016 21.9116 9.7125ZM25.9891 18.375C24.5891 19.3125 22.6266 19.6625 20.8141 19.425C21.2891 18.4 21.5391 17.2625 21.5516 16.0625C21.5516 14.8125 21.2766 13.625 20.7516 12.5875C22.6016 12.3375 24.5641 12.6875 25.9766 13.625C27.9516 14.925 27.9516 17.0625 25.9891 18.375ZM8.04664 9.7125C8.13414 9.7 8.22164 9.7 8.30914 9.7125C9.24272 9.68195 10.1277 9.28899 10.7764 8.61693C11.4251 7.94488 11.7866 7.04657 11.7841 6.1125C11.7841 4.125 10.1716 2.5 8.17164 2.5C6.18414 2.5 4.55914 4.1125 4.55914 6.1125C4.56182 7.04716 4.92665 7.94441 5.57698 8.61572C6.22732 9.28704 7.11253 9.68016 8.04664 9.7125ZM8.18789 16.0625C8.18789 17.275 8.45039 18.425 8.92539 19.4625C7.16289 19.65 5.32539 19.275 3.97539 18.3875C2.00039 17.075 2.00039 14.9375 3.97539 13.625C5.31289 12.725 7.20039 12.3625 8.97539 12.5625C8.46289 13.6125 8.18789 14.8 8.18789 16.0625Z" fill="url(#paint0_linear_753_142)"/>
<path d="M15.15 19.8375C15.042 19.825 14.933 19.825 14.825 19.8375C13.7136 19.8002 12.6603 19.3318 11.888 18.5316C11.1158 17.7314 10.6852 16.6621 10.6875 15.55C10.6875 13.175 12.6 11.25 14.9875 11.25C17.3625 11.25 19.2875 13.175 19.2875 15.55C19.2875 17.875 17.4625 19.7625 15.15 19.8375ZM11.0875 22.425C9.2 23.6875 9.2 25.7625 11.0875 27.0125C13.2375 28.45 16.7625 28.45 18.9125 27.0125C20.8 25.75 20.8 23.675 18.9125 22.425C16.775 20.9875 13.25 20.9875 11.0875 22.425Z" fill="white"/>
<defs>
<linearGradient id="paint0_linear_753_142" x1="14.9768" y1="2.5" x2="14.9768" y2="19.5096" gradientUnits="userSpaceOnUse">
<stop stop-color="#14D3DB"/>
<stop offset="1" stop-color="#0057FF"/>
</linearGradient>
</defs>
</svg>
