<svg width="30" height="30" viewBox="0 0 30 30" fill="none" xmlns="http://www.w3.org/2000/svg">
<path d="M24.1754 18.1101L22.9254 16.0351C22.6629 15.5726 22.4254 14.6976 22.4254 14.1851V11.0226C22.4254 6.94756 19.1129 3.62256 15.0254 3.62256C10.9379 3.62256 7.62542 6.94756 7.62542 11.0226V14.1851C7.62542 14.6976 7.38792 15.5726 7.12542 16.0226L5.86292 18.1101C5.36292 18.9476 5.25042 19.8726 5.56292 20.7226C5.86292 21.5601 6.57542 22.2101 7.50042 22.5226C9.92542 23.3476 12.4754 23.7476 15.0254 23.7476C17.5754 23.7476 20.1254 23.3476 22.5504 22.5351C23.4254 22.2476 24.1004 21.5851 24.4254 20.7226C24.7504 19.8601 24.6629 18.9101 24.1754 18.1101Z" fill="url(#paint0_linear_783_1531)"/>
<path d="M17.8121 4.15C16.9496 3.8125 16.0121 3.625 15.0246 3.625C14.0496 3.625 13.1121 3.8 12.2496 4.15C12.7871 3.1375 13.8496 2.5 15.0246 2.5C16.2121 2.5 17.2621 3.1375 17.8121 4.15ZM18.5371 25.0125C18.2742 25.7402 17.7937 26.3693 17.1608 26.8143C16.5279 27.2594 15.7733 27.4988 14.9996 27.5C14.0121 27.5 13.0371 27.1 12.3496 26.3875C11.9496 26.0125 11.6496 25.5125 11.4746 25C11.6371 25.025 11.7996 25.0375 11.9746 25.0625C12.2621 25.1 12.5621 25.1375 12.8621 25.1625C13.5746 25.225 14.2996 25.2625 15.0246 25.2625C15.7371 25.2625 16.4496 25.225 17.1496 25.1625C17.4121 25.1375 17.6746 25.125 17.9246 25.0875L18.5371 25.0125Z" fill="white"/>
<defs>
<linearGradient id="paint0_linear_783_1531" x1="15.0035" y1="3.62256" x2="15.0035" y2="23.7476" gradientUnits="userSpaceOnUse">
<stop stop-color="#14D3DB"/>
<stop offset="1" stop-color="#0057FF"/>
</linearGradient>
</defs>
</svg>
