<svg width="41" height="41" viewBox="0 0 41 41" fill="none" xmlns="http://www.w3.org/2000/svg">
<circle cx="20.25" cy="20.25" r="20.25" fill="#323232"/>
<path opacity="0.4" d="M28.75 15C29.7446 15 30.6984 14.6049 31.4017 13.9017C32.1049 13.1984 32.5 12.2446 32.5 11.25C32.5 10.2554 32.1049 9.30161 31.4017 8.59835C30.6984 7.89509 29.7446 7.5 28.75 7.5C27.7554 7.5 26.8016 7.89509 26.0983 8.59835C25.3951 9.30161 25 10.2554 25 11.25C25 12.2446 25.3951 13.1984 26.0983 13.9017C26.8016 14.6049 27.7554 15 28.75 15Z" stroke="#14D3DB" stroke-width="1.5" stroke-linecap="round" stroke-linejoin="round"/>
<path d="M22.5 7.5H16.25C10 7.5 7.5 10 7.5 16.25V23.75C7.5 30 10 32.5 16.25 32.5H23.75C30 32.5 32.5 30 32.5 23.75V17.5" stroke="#14D3DB" stroke-width="1.5" stroke-linecap="round" stroke-linejoin="round"/>
</svg>
