<svg width="30" height="30" viewBox="0 0 30 30" fill="none" xmlns="http://www.w3.org/2000/svg">
<path opacity="0.4" d="M23.75 10C24.7446 10 25.6984 9.60491 26.4017 8.90165C27.1049 8.19839 27.5 7.24456 27.5 6.25C27.5 5.25544 27.1049 4.30161 26.4017 3.59835C25.6984 2.89509 24.7446 2.5 23.75 2.5C22.7554 2.5 21.8016 2.89509 21.0983 3.59835C20.3951 4.30161 20 5.25544 20 6.25C20 7.24456 20.3951 8.19839 21.0983 8.90165C21.8016 9.60491 22.7554 10 23.75 10Z" stroke="white" stroke-width="1.5" stroke-linecap="round" stroke-linejoin="round"/>
<path d="M17.5 2.5H11.25C5 2.5 2.5 5 2.5 11.25V18.75C2.5 25 5 27.5 11.25 27.5H18.75C25 27.5 27.5 25 27.5 18.75V12.5" stroke="white" stroke-width="1.5" stroke-linecap="round" stroke-linejoin="round"/>
</svg>
