<svg width="24" height="24" viewBox="0 0 24 24" fill="none" xmlns="http://www.w3.org/2000/svg">
<path d="M19.5005 7.49902L18.0105 8.98902L15.0105 5.98902L16.5005 4.49902C16.9205 4.07902 17.4605 3.87902 18.0005 3.87902C18.5405 3.87902 19.0805 4.07902 19.5005 4.49902C20.3305 5.32902 20.3305 6.66902 19.5005 7.49902ZM17.3105 9.70002L6.50051 20.5C5.67051 21.33 4.33051 21.33 3.50051 20.5C2.67051 19.67 2.67051 18.33 3.50051 17.5L14.3105 6.70002L17.3105 9.70002ZM9.9505 3.50002L10.3605 2.11002C10.4005 1.98002 10.3605 1.84002 10.2705 1.74002C10.1805 1.64002 10.0205 1.60002 9.89051 1.64002L8.5005 2.05002L7.11051 1.64002C6.9805 1.60002 6.8405 1.64002 6.7405 1.73002C6.6405 1.83002 6.61051 1.97002 6.65051 2.10002L7.05051 3.50002L6.6405 4.89002C6.6005 5.02002 6.6405 5.16002 6.7305 5.26002C6.8305 5.36002 6.9705 5.39002 7.1005 5.35002L8.5005 4.95002L9.89051 5.36002C9.93051 5.37002 9.96051 5.38002 10.0005 5.38002C10.1005 5.38002 10.1905 5.34002 10.2705 5.27002C10.3705 5.17002 10.4005 5.03002 10.3605 4.90002L9.9505 3.50002ZM5.95051 9.50002L6.36051 8.11002C6.40051 7.98002 6.36051 7.84002 6.27051 7.74002C6.17051 7.64002 6.03051 7.61002 5.90051 7.65002L4.50051 8.05002L3.1105 7.64002C2.9805 7.60002 2.84051 7.64002 2.74051 7.73002C2.64051 7.83002 2.61051 7.97002 2.65051 8.10002L3.05051 9.50002L2.64051 10.89C2.60051 11.02 2.64051 11.16 2.73051 11.26C2.83051 11.36 2.9705 11.39 3.1005 11.35L4.4905 10.94L5.88051 11.35C5.91051 11.36 5.95051 11.36 5.9905 11.36C6.0905 11.36 6.18051 11.32 6.26051 11.25C6.36051 11.15 6.39051 11.01 6.35051 10.88L5.95051 9.50002ZM20.9505 14.5L21.3605 13.11C21.4005 12.98 21.3605 12.84 21.2705 12.74C21.1705 12.64 21.0305 12.61 20.9005 12.65L19.5105 13.06L18.1205 12.65C17.9905 12.61 17.8505 12.65 17.7505 12.74C17.6505 12.84 17.6205 12.98 17.6605 13.11L18.0705 14.5L17.6605 15.89C17.6205 16.02 17.6605 16.16 17.7505 16.26C17.8505 16.36 17.9905 16.39 18.1205 16.35L19.5105 15.94L20.9005 16.35C20.9305 16.36 20.9705 16.36 21.0105 16.36C21.1105 16.36 21.2005 16.32 21.2805 16.25C21.3805 16.15 21.4105 16.01 21.3705 15.88L20.9505 14.5Z" fill="#14D3DB"/>
</svg>
