<svg width="25" height="25" viewBox="0 0 25 25" fill="none" xmlns="http://www.w3.org/2000/svg">
<path d="M18.7295 19.866H14.7295M16.7295 21.866V17.866M12.2195 22.176C10.3995 22.176 8.58953 21.716 7.20953 20.796C4.78953 19.176 4.78953 16.536 7.20953 14.926C9.95953 13.086 14.4695 13.086 17.2195 14.926M12.3895 11.236C12.2895 11.226 12.1695 11.226 12.0595 11.236C10.9117 11.197 9.82417 10.7128 9.02716 9.88593C8.23015 9.05905 7.78627 7.95442 7.78953 6.80597C7.78795 6.2233 7.90139 5.64604 8.12333 5.1073C8.34528 4.56855 8.67137 4.07891 9.08292 3.66643C9.49447 3.25395 9.98337 2.92676 10.5216 2.7036C11.0599 2.48044 11.6369 2.3657 12.2195 2.36597C14.6695 2.36597 16.6595 4.35597 16.6595 6.80597C16.6595 9.20597 14.7595 11.156 12.3895 11.236Z" stroke="white" stroke-width="1.5" stroke-linecap="round" stroke-linejoin="round"/>
</svg>
