<svg width="45" height="45" viewBox="0 0 45 45" fill="none" xmlns="http://www.w3.org/2000/svg">
<path d="M0 22.5C0 10.0736 10.0736 0 22.5 0C34.9264 0 45 10.0736 45 22.5C45 34.9264 34.9264 45 22.5 45C10.0736 45 0 34.9264 0 22.5Z" fill="#404040"/>
<path d="M33 32L31 30M22.5 31C23.7476 31 24.9829 30.7543 26.1355 30.2769C27.2881 29.7994 28.3354 29.0997 29.2175 28.2175C30.0997 27.3354 30.7994 26.2881 31.2769 25.1355C31.7543 23.9829 32 22.7476 32 21.5C32 20.2524 31.7543 19.0171 31.2769 17.8645C30.7994 16.7119 30.0997 15.6646 29.2175 14.7825C28.3354 13.9003 27.2881 13.2006 26.1355 12.7231C24.9829 12.2457 23.7476 12 22.5 12C19.9804 12 17.5641 13.0009 15.7825 14.7825C14.0009 16.5641 13 18.9804 13 21.5C13 24.0196 14.0009 26.4359 15.7825 28.2175C17.5641 29.9991 19.9804 31 22.5 31Z" stroke="white" stroke-width="1.5" stroke-linecap="round" stroke-linejoin="round"/>
</svg>
