<svg width="30" height="30" viewBox="0 0 30 30" fill="none" xmlns="http://www.w3.org/2000/svg">
<path d="M3.75 11.3875V18.6C3.75 21.25 3.75 21.25 6.25 22.9375L13.125 26.9125C14.1625 27.5125 15.85 27.5125 16.875 26.9125L23.75 22.9375C26.25 21.25 26.25 21.25 26.25 18.6125V11.3875C26.25 8.75 26.25 8.75 23.75 7.0625L16.875 3.0875C15.85 2.4875 14.1625 2.4875 13.125 3.0875L6.25 7.0625C3.75 8.75 3.75 8.75 3.75 11.3875Z" stroke="white" stroke-width="1.5" stroke-linecap="round" stroke-linejoin="round"/>
<path opacity="0.34" d="M15 18.75C15.9946 18.75 16.9484 18.3549 17.6517 17.6517C18.3549 16.9484 18.75 15.9946 18.75 15C18.75 14.0054 18.3549 13.0516 17.6517 12.3483C16.9484 11.6451 15.9946 11.25 15 11.25C14.0054 11.25 13.0516 11.6451 12.3483 12.3483C11.6451 13.0516 11.25 14.0054 11.25 15C11.25 15.9946 11.6451 16.9484 12.3483 17.6517C13.0516 18.3549 14.0054 18.75 15 18.75Z" stroke="white" stroke-width="1.5" stroke-linecap="round" stroke-linejoin="round"/>
</svg>
