<svg width="41" height="41" viewBox="0 0 41 41" fill="none" xmlns="http://www.w3.org/2000/svg">
<circle cx="20.25" cy="20.25" r="20.25" fill="#323232"/>
<path d="M8.75 16.3875V23.6C8.75 26.25 8.75 26.25 11.25 27.9375L18.125 31.9125C19.1625 32.5125 20.85 32.5125 21.875 31.9125L28.75 27.9375C31.25 26.25 31.25 26.25 31.25 23.6125V16.3875C31.25 13.75 31.25 13.75 28.75 12.0625L21.875 8.0875C20.85 7.4875 19.1625 7.4875 18.125 8.0875L11.25 12.0625C8.75 13.75 8.75 13.75 8.75 16.3875Z" stroke="#14D3DB" stroke-width="1.5" stroke-linecap="round" stroke-linejoin="round"/>
<path opacity="0.34" d="M20 23.75C20.9946 23.75 21.9484 23.3549 22.6517 22.6517C23.3549 21.9484 23.75 20.9946 23.75 20C23.75 19.0054 23.3549 18.0516 22.6517 17.3483C21.9484 16.6451 20.9946 16.25 20 16.25C19.0054 16.25 18.0516 16.6451 17.3483 17.3483C16.6451 18.0516 16.25 19.0054 16.25 20C16.25 20.9946 16.6451 21.9484 17.3483 22.6517C18.0516 23.3549 19.0054 23.75 20 23.75Z" stroke="#14D3DB" stroke-width="1.5" stroke-linecap="round" stroke-linejoin="round"/>
</svg>
