<svg width="25" height="24" viewBox="0 0 25 24" fill="none" xmlns="http://www.w3.org/2000/svg">
<path d="M21.3206 22C21.3206 18.13 17.4706 15 12.7306 15C7.99063 15 4.14062 18.13 4.14062 22M12.7306 12C14.0567 12 15.3285 11.4732 16.2662 10.5355C17.2038 9.59785 17.7306 8.32608 17.7306 7C17.7306 5.67392 17.2038 4.40215 16.2662 3.46447C15.3285 2.52678 14.0567 2 12.7306 2C11.4045 2 10.1328 2.52678 9.19509 3.46447C8.25741 4.40215 7.73062 5.67392 7.73062 7C7.73062 8.32608 8.25741 9.59785 9.19509 10.5355C10.1328 11.4732 11.4045 12 12.7306 12Z" stroke="white" stroke-opacity="0.5" stroke-width="1.5" stroke-linecap="round" stroke-linejoin="round"/>
</svg>
