<svg width="24" height="24" viewBox="0 0 24 24" fill="none" xmlns="http://www.w3.org/2000/svg">
<path d="M21.0802 8.58V15.42C21.0802 16.54 20.4802 17.58 19.5102 18.15L13.5702 21.58C12.6002 22.14 11.4002 22.14 10.4202 21.58L4.48016 18.15C4.00193 17.8727 3.60509 17.4745 3.32951 16.9953C3.05392 16.5161 2.9093 15.9728 2.91016 15.42V8.58C2.91016 7.46 3.51016 6.42 4.48016 5.85L10.4202 2.42C11.3902 1.86 12.5902 1.86 13.5702 2.42L19.5102 5.85C20.4802 6.42 21.0802 7.45 21.0802 8.58Z" stroke="white" stroke-opacity="0.5" stroke-width="1.5" stroke-linecap="round" stroke-linejoin="round"/>
<path d="M16 16.6601C16 14.8601 14.21 13.4001 12 13.4001C9.79 13.4001 8 14.8601 8 16.6601M12 11.0001C12.618 11.0001 13.2106 10.7546 13.6476 10.3176C14.0845 9.88069 14.33 9.28804 14.33 8.67009C14.33 8.05213 14.0845 7.45949 13.6476 7.02253C13.2106 6.58557 12.618 6.34009 12 6.34009C11.382 6.34009 10.7894 6.58557 10.3524 7.02253C9.91548 7.45949 9.67 8.05213 9.67 8.67009C9.67 9.28804 9.91548 9.88069 10.3524 10.3176C10.7894 10.7546 11.382 11.0001 12 11.0001Z" stroke="white" stroke-opacity="0.5" stroke-width="1.5" stroke-linecap="round" stroke-linejoin="round"/>
</svg>
