<svg width="10" height="23" viewBox="0 0 10 23" fill="none" xmlns="http://www.w3.org/2000/svg">
<path d="M1.98156 0.455145L9.74653 10.6504C9.8387 10.7718 9.90413 10.9033 9.94284 11.0449C9.98155 11.1865 10.0006 11.3382 9.99999 11.5C9.99999 11.6618 9.98063 11.8135 9.94192 11.9551C9.90321 12.0967 9.83808 12.2282 9.74653 12.3496L1.98156 22.5752C1.76651 22.8584 1.49769 23 1.17511 23C0.852532 23 0.576035 22.8483 0.345621 22.5449C0.115207 22.2414 0 21.8874 0 21.4828C0 21.0783 0.115207 20.7243 0.345621 20.4208L7.11981 11.5L0.345621 2.57916C0.130568 2.29596 0.0230408 1.94681 0.0230408 1.53172C0.0230408 1.11662 0.138248 0.757767 0.368663 0.455145C0.599077 0.151714 0.867894 0 1.17511 0C1.48233 0 1.75115 0.151714 1.98156 0.455145Z" fill="white"/>
</svg>
