<svg width="31" height="31" viewBox="0 0 31 31" fill="none" xmlns="http://www.w3.org/2000/svg">
<path d="M16.2559 11.75H8.75586M27.5059 14.2125V16.7875C27.5059 17.475 26.9559 18.0375 26.2559 18.0625H23.8059C22.4559 18.0625 21.2184 17.075 21.1059 15.725C21.0309 14.9375 21.3309 14.2 21.8559 13.6875C22.3184 13.2125 22.9559 12.9375 23.6559 12.9375H26.2559C26.9559 12.9625 27.5059 13.525 27.5059 14.2125Z" stroke="#0057FF" stroke-width="2.5" stroke-linecap="round" stroke-linejoin="round"/>
<path d="M21.8559 13.6875C21.3309 14.2 21.0309 14.9375 21.1059 15.725C21.2184 17.075 22.4559 18.0625 23.8059 18.0625H26.2559V19.875C26.2559 23.625 23.7559 26.125 20.0059 26.125H8.75586C5.00586 26.125 2.50586 23.625 2.50586 19.875V11.125C2.50586 7.725 4.55586 5.35 7.74336 4.95C8.06836 4.9 8.40586 4.875 8.75586 4.875H20.0059C20.3309 4.875 20.6434 4.8875 20.9434 4.9375C24.1684 5.3125 26.2559 7.7 26.2559 11.125V12.9375H23.6559C22.9559 12.9375 22.3184 13.2125 21.8559 13.6875Z" stroke="#0057FF" stroke-width="2.5" stroke-linecap="round" stroke-linejoin="round"/>
</svg>
