<svg width="25" height="27" viewBox="0 0 25 27" fill="none" xmlns="http://www.w3.org/2000/svg">
<path d="M21.9703 7.60138C21.0849 6.57771 19.6057 6.06587 17.4599 6.06587H17.2099V6.02231C17.2099 4.19276 17.2099 1.92761 13.2932 1.92761H11.7099C7.79321 1.92761 7.79321 4.20365 7.79321 6.02231V6.07676H7.54321C5.38696 6.07676 3.91821 6.5886 3.03279 7.61227C2.00154 8.81019 2.03279 10.4219 2.13696 11.5218L2.14738 11.5981L2.22759 12.4834C2.24321 12.6468 2.32654 12.7938 2.45779 12.8831C2.70779 13.0541 3.1255 13.3361 3.37654 13.4821C3.52238 13.5801 3.67863 13.6672 3.83488 13.7543C5.61613 14.778 7.57446 15.4641 9.56404 15.8017C9.65779 16.8253 10.0849 18.0233 12.3661 18.0233C14.6474 18.0233 15.0953 16.8362 15.1682 15.7799C17.2932 15.4205 19.3453 14.6473 21.1995 13.5147C21.262 13.4821 21.3036 13.4494 21.3557 13.4167C21.7693 13.1717 22.1974 12.8711 22.588 12.576C22.6462 12.532 22.6948 12.4757 22.7309 12.4108C22.767 12.3459 22.7896 12.2738 22.7974 12.1992L22.814 12.0435L22.8661 11.5316C22.8765 11.4663 22.8765 11.4118 22.887 11.3356C22.9703 10.2357 22.9495 8.73396 21.9703 7.60138ZM13.637 15.0611C13.637 16.2155 13.637 16.3897 12.3557 16.3897C11.0745 16.3897 11.0745 16.1828 11.0745 15.072V13.6999H13.637V15.0611ZM9.28279 6.06587V6.02231C9.28279 4.17098 9.28279 3.4849 11.7099 3.4849H13.2932C15.7203 3.4849 15.7203 4.18187 15.7203 6.02231V6.07676H9.28279V6.06587Z" fill="#FFF50A"/>
<path d="M21.7433 14.9576C21.8275 14.9157 21.9208 14.8978 22.0138 14.9056C22.1067 14.9134 22.1961 14.9467 22.2728 15.0022C22.3495 15.0576 22.4108 15.1333 22.4507 15.2214C22.4905 15.3096 22.5074 15.4072 22.4996 15.5043L22.1246 19.8103C21.9058 21.9883 21.0517 24.2099 16.4683 24.2099H8.53188C3.94855 24.2099 3.09438 21.9883 2.87563 19.8212L2.52146 15.7395C2.51358 15.6434 2.52991 15.5467 2.56882 15.4591C2.60774 15.3716 2.66789 15.2962 2.7433 15.2405C2.81871 15.1848 2.90675 15.1507 2.99867 15.1416C3.0906 15.1324 3.18321 15.1486 3.2673 15.1885C4.4548 15.7504 6.64438 16.7458 7.9975 17.116C8.08196 17.14 8.1603 17.1832 8.22693 17.2425C8.29356 17.3018 8.34683 17.3757 8.38292 17.4591C9.01521 18.8726 10.386 19.6251 12.3663 19.6251C14.3267 19.6251 15.7152 18.8432 16.3496 17.4264C16.3857 17.3431 16.439 17.2692 16.5057 17.2099C16.5723 17.1506 16.6506 17.1074 16.735 17.0834C18.1715 16.6881 20.5038 15.5751 21.7454 14.9576H21.7433Z" fill="#FFF50A"/>
</svg>
